<svg width="291" height="163" viewBox="0 0 291 163" fill="none" xmlns="http://www.w3.org/2000/svg">
<rect width="291" height="163" rx="15" fill="#292E35"/>
<g clip-path="url(#clip0_563_8158)">
<path d="M117.083 20C118.375 20 119.667 21.3912 119.667 22.7814V31.1256H150.667V22.7814C150.667 21.3912 151.797 20 153.25 20C154.541 20 155.833 21.3912 155.833 22.7814V31.1256H161C166.65 31.1256 171.333 36.1662 171.333 42.2503V53.3749H104.166V97.8754C104.166 101.004 106.427 103.437 109.334 103.437H146.792C148.406 105.697 150.183 107.435 152.28 109H109.334C103.521 109 99 104.133 99 97.8754V42.2503C99 36.1662 103.521 31.1256 109.334 31.1256H114.5V22.7814C114.5 21.3912 115.631 20 117.083 20ZM161 36.6874H109.334C106.427 36.6874 104.166 39.2954 104.166 42.2503V47.8131H166.167V42.2503C166.167 39.2954 163.744 36.6874 161 36.6874ZM171.333 95.094C171.333 96.6586 170.041 97.8754 168.75 97.8754C167.298 97.8754 166.167 96.6586 166.167 95.094C166.167 93.7028 167.298 92.3126 168.75 92.3126C170.041 92.3126 171.333 93.7028 171.333 95.094ZM171.172 86.7498C171.172 88.3144 170.041 89.5312 168.589 89.5312C167.298 89.5312 166.005 88.3144 166.005 86.7498V72.8437C166.005 71.4535 167.298 70.0623 168.589 70.0623C170.041 70.0623 171.172 71.4535 171.172 72.8437V86.7498ZM145.499 83.9693C145.499 70.2367 155.833 58.9377 168.75 58.9377C181.506 58.9377 192 70.2367 192 83.9693C192 97.8754 181.506 109 168.75 109C155.833 109 145.499 97.8754 145.499 83.9693ZM168.75 103.437C178.6 103.437 186.834 94.7462 186.834 83.9693C186.834 73.3659 178.6 64.5005 168.75 64.5005C158.739 64.5005 150.667 73.3659 150.667 83.9693C150.667 94.7462 158.739 103.437 168.75 103.437Z" fill="white"/>
</g>
<path d="M27.5783 131.455V146H26.2857L17.6919 133.82H17.5783V146H16.2502V131.455H17.5357L26.1578 143.649H26.2715V131.455H27.5783ZM35.4228 146.227C34.4805 146.227 33.6472 145.988 32.9228 145.51C32.2031 145.032 31.6396 144.371 31.2324 143.528C30.8252 142.681 30.6216 141.703 30.6216 140.595C30.6216 139.478 30.8252 138.495 31.2324 137.648C31.6396 136.795 32.2031 136.133 32.9228 135.659C33.6472 135.181 34.4805 134.942 35.4228 134.942C36.365 134.942 37.196 135.181 37.9157 135.659C38.6354 136.137 39.1988 136.8 39.606 137.648C40.0179 138.495 40.2239 139.478 40.2239 140.595C40.2239 141.703 40.0203 142.681 39.6131 143.528C39.2059 144.371 38.6401 145.032 37.9157 145.51C37.196 145.988 36.365 146.227 35.4228 146.227ZM35.4228 145.07C36.1803 145.07 36.8219 144.866 37.3475 144.459C37.873 144.052 38.2708 143.509 38.5407 142.832C38.8153 142.155 38.9526 141.41 38.9526 140.595C38.9526 139.781 38.8153 139.033 38.5407 138.351C38.2708 137.669 37.873 137.122 37.3475 136.71C36.8219 136.298 36.1803 136.092 35.4228 136.092C34.6699 136.092 34.0283 136.298 33.498 136.71C32.9725 137.122 32.5724 137.669 32.2978 138.351C32.0279 139.033 31.8929 139.781 31.8929 140.595C31.8929 141.41 32.0279 142.155 32.2978 142.832C32.5724 143.509 32.9725 144.052 33.498 144.459C34.0236 144.866 34.6652 145.07 35.4228 145.07ZM52.5517 146.227C51.6568 146.227 50.8732 145.991 50.2008 145.517C49.5285 145.044 49.0029 144.383 48.6241 143.536C48.2501 142.688 48.063 141.701 48.063 140.574C48.063 139.452 48.2501 138.469 48.6241 137.626C49.0029 136.779 49.5308 136.121 50.2079 135.652C50.885 135.179 51.6734 134.942 52.573 134.942C53.2359 134.942 53.7875 135.06 54.2278 135.297C54.6681 135.529 55.0209 135.818 55.286 136.163C55.5512 136.509 55.7572 136.845 55.9039 137.172H56.0176V131.455H57.2889V146H56.0531V143.976H55.9039C55.7572 144.307 55.5488 144.648 55.2789 144.999C55.0091 145.344 54.6516 145.635 54.2065 145.872C53.7662 146.109 53.2145 146.227 52.5517 146.227ZM52.7008 145.07C53.4063 145.07 54.0076 144.878 54.5048 144.494C55.002 144.106 55.3807 143.573 55.6412 142.896C55.9063 142.214 56.0389 141.433 56.0389 140.553C56.0389 139.681 55.9087 138.912 55.6483 138.244C55.3878 137.572 55.0091 137.046 54.5119 136.668C54.0147 136.284 53.411 136.092 52.7008 136.092C51.9717 136.092 51.3561 136.291 50.8542 136.689C50.3571 137.082 49.9783 137.615 49.7179 138.287C49.4622 138.959 49.3343 139.714 49.3343 140.553C49.3343 141.4 49.4645 142.165 49.725 142.847C49.9854 143.528 50.3642 144.071 50.8613 144.473C51.3632 144.871 51.9764 145.07 52.7008 145.07ZM63.9366 146.249C63.2785 146.249 62.6771 146.121 62.1326 145.865C61.5881 145.605 61.1549 145.231 60.8329 144.743C60.5109 144.25 60.35 143.654 60.35 142.953C60.35 142.413 60.4518 141.959 60.6554 141.589C60.859 141.22 61.1478 140.917 61.5218 140.68C61.8959 140.444 62.3386 140.257 62.85 140.119C63.3613 139.982 63.9248 139.875 64.5403 139.8C65.1511 139.724 65.6672 139.658 66.0886 139.601C66.5147 139.544 66.8391 139.454 67.0616 139.331C67.2842 139.208 67.3954 139.009 67.3954 138.734V138.479C67.3954 137.735 67.1729 137.151 66.7278 136.724C66.2875 136.294 65.653 136.078 64.8244 136.078C64.0384 136.078 63.3968 136.251 62.8997 136.597C62.4073 136.942 62.0616 137.349 61.8627 137.818L60.6625 137.385C60.9087 136.788 61.2496 136.312 61.6852 135.957C62.1208 135.598 62.6085 135.339 63.1483 135.183C63.688 135.022 64.2349 134.942 64.7889 134.942C65.2056 134.942 65.6388 134.996 66.0886 135.105C66.5431 135.214 66.9645 135.403 67.3528 135.673C67.7411 135.938 68.0559 136.31 68.2974 136.788C68.5389 137.262 68.6596 137.863 68.6596 138.592V146H67.3954V144.274H67.3173C67.1658 144.596 66.9409 144.909 66.6426 145.212C66.3443 145.515 65.9702 145.763 65.5204 145.957C65.0706 146.152 64.5427 146.249 63.9366 146.249ZM64.1071 145.091C64.7794 145.091 65.3618 144.942 65.8542 144.643C66.3467 144.345 66.7254 143.95 66.9906 143.457C67.2605 142.96 67.3954 142.413 67.3954 141.817V140.24C67.3007 140.33 67.1421 140.411 66.9196 140.482C66.7018 140.553 66.4484 140.616 66.1596 140.673C65.8755 140.725 65.5914 140.77 65.3074 140.808C65.0233 140.846 64.7676 140.879 64.5403 140.908C63.9248 140.983 63.3992 141.102 62.9636 141.263C62.528 141.424 62.1942 141.646 61.9622 141.93C61.7302 142.21 61.6142 142.57 61.6142 143.01C61.6142 143.673 61.8509 144.187 62.3244 144.551C62.7979 144.911 63.3921 145.091 64.1071 145.091ZM76.3194 135.091V136.192H71.1135V135.091H76.3194ZM72.7399 132.477H74.0112V143.152C74.0112 143.607 74.0893 143.964 74.2456 144.224C74.4018 144.48 74.6054 144.662 74.8564 144.771C75.1073 144.875 75.3748 144.928 75.6589 144.928C75.8246 144.928 75.9667 144.918 76.085 144.899C76.2034 144.875 76.3076 144.852 76.3975 144.828L76.6674 145.972C76.5443 146.019 76.3928 146.062 76.2129 146.099C76.033 146.142 75.8104 146.163 75.5453 146.163C75.0813 146.163 74.6338 146.062 74.2029 145.858C73.7768 145.654 73.4264 145.351 73.1518 144.949C72.8772 144.546 72.7399 144.047 72.7399 143.45V132.477ZM82.2374 146.249C81.5792 146.249 80.9779 146.121 80.4334 145.865C79.8889 145.605 79.4557 145.231 79.1337 144.743C78.8117 144.25 78.6507 143.654 78.6507 142.953C78.6507 142.413 78.7525 141.959 78.9561 141.589C79.1597 141.22 79.4486 140.917 79.8226 140.68C80.1967 140.444 80.6394 140.257 81.1507 140.119C81.6621 139.982 82.2256 139.875 82.8411 139.8C83.4519 139.724 83.968 139.658 84.3894 139.601C84.8155 139.544 85.1399 139.454 85.3624 139.331C85.5849 139.208 85.6962 139.009 85.6962 138.734V138.479C85.6962 137.735 85.4737 137.151 85.0286 136.724C84.5882 136.294 83.9538 136.078 83.1252 136.078C82.3392 136.078 81.6976 136.251 81.2005 136.597C80.708 136.942 80.3624 137.349 80.1635 137.818L78.9632 137.385C79.2095 136.788 79.5504 136.312 79.986 135.957C80.4216 135.598 80.9093 135.339 81.449 135.183C81.9888 135.022 82.5357 134.942 83.0897 134.942C83.5063 134.942 83.9396 134.996 84.3894 135.105C84.8439 135.214 85.2653 135.403 85.6536 135.673C86.0418 135.938 86.3567 136.31 86.5982 136.788C86.8397 137.262 86.9604 137.863 86.9604 138.592V146H85.6962V144.274H85.6181C85.4666 144.596 85.2417 144.909 84.9434 145.212C84.6451 145.515 84.271 145.763 83.8212 145.957C83.3714 146.152 82.8435 146.249 82.2374 146.249ZM82.4078 145.091C83.0802 145.091 83.6626 144.942 84.155 144.643C84.6474 144.345 85.0262 143.95 85.2914 143.457C85.5613 142.96 85.6962 142.413 85.6962 141.817V140.24C85.6015 140.33 85.4429 140.411 85.2203 140.482C85.0025 140.553 84.7492 140.616 84.4604 140.673C84.1763 140.725 83.8922 140.77 83.6081 140.808C83.324 140.846 83.0684 140.879 82.8411 140.908C82.2256 140.983 81.7 141.102 81.2644 141.263C80.8288 141.424 80.495 141.646 80.263 141.93C80.031 142.21 79.915 142.57 79.915 143.01C79.915 143.673 80.1517 144.187 80.6252 144.551C81.0987 144.911 81.6929 145.091 82.4078 145.091ZM100.437 135.091V136.192H95.0748V135.091H100.437ZM96.7509 146V133.493C96.7509 132.906 96.8858 132.411 97.1557 132.009C97.4303 131.606 97.7878 131.301 98.2282 131.092C98.6685 130.884 99.1349 130.78 99.6273 130.78C99.9587 130.78 100.233 130.808 100.451 130.865C100.674 130.917 100.849 130.969 100.977 131.021L100.607 132.129C100.513 132.101 100.397 132.068 100.259 132.03C100.122 131.992 99.9493 131.973 99.7409 131.973C99.1917 131.973 98.7679 132.127 98.4696 132.435C98.1713 132.742 98.0222 133.183 98.0222 133.756L98.0151 146H96.7509ZM106.751 146.227C105.809 146.227 104.975 145.988 104.251 145.51C103.531 145.032 102.968 144.371 102.561 143.528C102.153 142.681 101.95 141.703 101.95 140.595C101.95 139.478 102.153 138.495 102.561 137.648C102.968 136.795 103.531 136.133 104.251 135.659C104.975 135.181 105.809 134.942 106.751 134.942C107.693 134.942 108.524 135.181 109.244 135.659C109.963 136.137 110.527 136.8 110.934 137.648C111.346 138.495 111.552 139.478 111.552 140.595C111.552 141.703 111.348 142.681 110.941 143.528C110.534 144.371 109.968 145.032 109.244 145.51C108.524 145.988 107.693 146.227 106.751 146.227ZM106.751 145.07C107.508 145.07 108.15 144.866 108.676 144.459C109.201 144.052 109.599 143.509 109.869 142.832C110.143 142.155 110.281 141.41 110.281 140.595C110.281 139.781 110.143 139.033 109.869 138.351C109.599 137.669 109.201 137.122 108.676 136.71C108.15 136.298 107.508 136.092 106.751 136.092C105.998 136.092 105.356 136.298 104.826 136.71C104.301 137.122 103.901 137.669 103.626 138.351C103.356 139.033 103.221 139.781 103.221 140.595C103.221 141.41 103.356 142.155 103.626 142.832C103.901 143.509 104.301 144.052 104.826 144.459C105.352 144.866 105.993 145.07 106.751 145.07ZM121.259 141.831V135.091H122.523V146H121.259V144.189H121.16C120.904 144.748 120.499 145.214 119.945 145.588C119.391 145.957 118.714 146.142 117.914 146.142C117.218 146.142 116.6 145.991 116.06 145.688C115.52 145.38 115.097 144.93 114.789 144.338C114.481 143.746 114.327 143.019 114.327 142.158V135.091H115.591V142.08C115.591 142.932 115.842 143.618 116.344 144.139C116.846 144.655 117.49 144.913 118.276 144.913C118.769 144.913 119.242 144.795 119.697 144.558C120.151 144.321 120.525 143.976 120.819 143.521C121.112 143.062 121.259 142.499 121.259 141.831ZM127.134 139.182V146H125.87V135.091H127.099V136.803H127.213C127.468 136.244 127.866 135.796 128.406 135.46C128.95 135.119 129.623 134.949 130.423 134.949C131.157 134.949 131.801 135.103 132.355 135.411C132.913 135.714 133.347 136.161 133.654 136.753C133.967 137.345 134.123 138.071 134.123 138.933V146H132.859V139.011C132.859 138.116 132.608 137.409 132.106 136.888C131.609 136.367 130.941 136.107 130.103 136.107C129.53 136.107 129.021 136.23 128.576 136.476C128.131 136.722 127.778 137.077 127.518 137.541C127.262 138 127.134 138.547 127.134 139.182ZM141.38 146.227C140.485 146.227 139.701 145.991 139.029 145.517C138.357 145.044 137.831 144.383 137.452 143.536C137.078 142.688 136.891 141.701 136.891 140.574C136.891 139.452 137.078 138.469 137.452 137.626C137.831 136.779 138.359 136.121 139.036 135.652C139.713 135.179 140.501 134.942 141.401 134.942C142.064 134.942 142.616 135.06 143.056 135.297C143.496 135.529 143.849 135.818 144.114 136.163C144.379 136.509 144.585 136.845 144.732 137.172H144.846V131.455H146.117V146H144.881V143.976H144.732C144.585 144.307 144.377 144.648 144.107 144.999C143.837 145.344 143.48 145.635 143.035 145.872C142.594 146.109 142.043 146.227 141.38 146.227ZM141.529 145.07C142.234 145.07 142.836 144.878 143.333 144.494C143.83 144.106 144.209 143.573 144.469 142.896C144.734 142.214 144.867 141.433 144.867 140.553C144.867 139.681 144.737 138.912 144.476 138.244C144.216 137.572 143.837 137.046 143.34 136.668C142.843 136.284 142.239 136.092 141.529 136.092C140.8 136.092 140.184 136.291 139.682 136.689C139.185 137.082 138.806 137.615 138.546 138.287C138.29 138.959 138.162 139.714 138.162 140.553C138.162 141.4 138.293 142.165 138.553 142.847C138.814 143.528 139.192 144.071 139.689 144.473C140.191 144.871 140.805 145.07 141.529 145.07ZM155.357 146V135.091H156.628V146H155.357ZM156.003 133.216C155.743 133.216 155.52 133.128 155.336 132.953C155.151 132.773 155.059 132.558 155.059 132.307C155.059 132.056 155.151 131.843 155.336 131.668C155.52 131.488 155.743 131.398 156.003 131.398C156.264 131.398 156.486 131.488 156.671 131.668C156.856 131.843 156.948 132.056 156.948 132.307C156.948 132.558 156.856 132.773 156.671 132.953C156.486 133.128 156.264 133.216 156.003 133.216ZM161.236 139.182V146H159.972V135.091H161.2V136.803H161.314C161.57 136.244 161.968 135.796 162.507 135.46C163.052 135.119 163.724 134.949 164.524 134.949C165.258 134.949 165.902 135.103 166.456 135.411C167.015 135.714 167.448 136.161 167.756 136.753C168.068 137.345 168.225 138.071 168.225 138.933V146H166.96V139.011C166.96 138.116 166.709 137.409 166.208 136.888C165.71 136.367 165.043 136.107 164.205 136.107C163.632 136.107 163.123 136.23 162.678 136.476C162.233 136.722 161.88 137.077 161.619 137.541C161.364 138 161.236 138.547 161.236 139.182ZM181.106 146.227C180.211 146.227 179.428 145.991 178.756 145.517C178.083 145.044 177.558 144.383 177.179 143.536C176.805 142.688 176.618 141.701 176.618 140.574C176.618 139.452 176.805 138.469 177.179 137.626C177.558 136.779 178.086 136.121 178.763 135.652C179.44 135.179 180.228 134.942 181.128 134.942C181.791 134.942 182.342 135.06 182.782 135.297C183.223 135.529 183.576 135.818 183.841 136.163C184.106 136.509 184.312 136.845 184.459 137.172H184.572V131.455H185.844V146H184.608V143.976H184.459C184.312 144.307 184.104 144.648 183.834 144.999C183.564 145.344 183.206 145.635 182.761 145.872C182.321 146.109 181.769 146.227 181.106 146.227ZM181.256 145.07C181.961 145.07 182.562 144.878 183.059 144.494C183.557 144.106 183.935 143.573 184.196 142.896C184.461 142.214 184.594 141.433 184.594 140.553C184.594 139.681 184.463 138.912 184.203 138.244C183.943 137.572 183.564 137.046 183.067 136.668C182.569 136.284 181.966 136.092 181.256 136.092C180.526 136.092 179.911 136.291 179.409 136.689C178.912 137.082 178.533 137.615 178.273 138.287C178.017 138.959 177.889 139.714 177.889 140.553C177.889 141.4 178.019 142.165 178.28 142.847C178.54 143.528 178.919 144.071 179.416 144.473C179.918 144.871 180.531 145.07 181.256 145.07ZM192.491 146.249C191.833 146.249 191.232 146.121 190.687 145.865C190.143 145.605 189.71 145.231 189.388 144.743C189.066 144.25 188.905 143.654 188.905 142.953C188.905 142.413 189.006 141.959 189.21 141.589C189.414 141.22 189.702 140.917 190.077 140.68C190.451 140.444 190.893 140.257 191.405 140.119C191.916 139.982 192.479 139.875 193.095 139.8C193.706 139.724 194.222 139.658 194.643 139.601C195.069 139.544 195.394 139.454 195.616 139.331C195.839 139.208 195.95 139.009 195.95 138.734V138.479C195.95 137.735 195.728 137.151 195.282 136.724C194.842 136.294 194.208 136.078 193.379 136.078C192.593 136.078 191.952 136.251 191.454 136.597C190.962 136.942 190.616 137.349 190.417 137.818L189.217 137.385C189.463 136.788 189.804 136.312 190.24 135.957C190.675 135.598 191.163 135.339 191.703 135.183C192.243 135.022 192.79 134.942 193.344 134.942C193.76 134.942 194.193 134.996 194.643 135.105C195.098 135.214 195.519 135.403 195.907 135.673C196.296 135.938 196.611 136.31 196.852 136.788C197.094 137.262 197.214 137.863 197.214 138.592V146H195.95V144.274H195.872C195.72 144.596 195.496 144.909 195.197 145.212C194.899 145.515 194.525 145.763 194.075 145.957C193.625 146.152 193.097 146.249 192.491 146.249ZM192.662 145.091C193.334 145.091 193.916 144.942 194.409 144.643C194.901 144.345 195.28 143.95 195.545 143.457C195.815 142.96 195.95 142.413 195.95 141.817V140.24C195.855 140.33 195.697 140.411 195.474 140.482C195.256 140.553 195.003 140.616 194.714 140.673C194.43 140.725 194.146 140.77 193.862 140.808C193.578 140.846 193.322 140.879 193.095 140.908C192.479 140.983 191.954 141.102 191.518 141.263C191.083 141.424 190.749 141.646 190.517 141.93C190.285 142.21 190.169 142.57 190.169 143.01C190.169 143.673 190.406 144.187 190.879 144.551C191.353 144.911 191.947 145.091 192.662 145.091ZM204.874 135.091V136.192H199.668V135.091H204.874ZM201.295 132.477H202.566V143.152C202.566 143.607 202.644 143.964 202.8 144.224C202.956 144.48 203.16 144.662 203.411 144.771C203.662 144.875 203.93 144.928 204.214 144.928C204.379 144.928 204.521 144.918 204.64 144.899C204.758 144.875 204.862 144.852 204.952 144.828L205.222 145.972C205.099 146.019 204.948 146.062 204.768 146.099C204.588 146.142 204.365 146.163 204.1 146.163C203.636 146.163 203.189 146.062 202.758 145.858C202.331 145.654 201.981 145.351 201.706 144.949C201.432 144.546 201.295 144.047 201.295 143.45V132.477ZM212.039 146.227C211.021 146.227 210.14 145.991 209.396 145.517C208.653 145.039 208.078 144.378 207.671 143.536C207.268 142.688 207.067 141.713 207.067 140.609C207.067 139.511 207.268 138.536 207.671 137.683C208.078 136.826 208.639 136.156 209.354 135.673C210.074 135.186 210.905 134.942 211.847 134.942C212.439 134.942 213.009 135.051 213.558 135.268C214.108 135.482 214.6 135.811 215.036 136.256C215.476 136.696 215.824 137.252 216.08 137.925C216.335 138.592 216.463 139.383 216.463 140.297V140.922H207.941V139.807H215.171C215.171 139.106 215.029 138.476 214.744 137.918C214.465 137.354 214.075 136.909 213.573 136.582C213.075 136.256 212.5 136.092 211.847 136.092C211.155 136.092 210.547 136.277 210.021 136.646C209.496 137.016 209.084 137.503 208.786 138.109C208.492 138.715 208.343 139.378 208.338 140.098V140.766C208.338 141.632 208.487 142.39 208.786 143.038C209.089 143.682 209.517 144.182 210.071 144.537C210.625 144.892 211.281 145.07 212.039 145.07C212.555 145.07 213.007 144.989 213.395 144.828C213.788 144.667 214.117 144.452 214.382 144.182C214.652 143.907 214.856 143.607 214.993 143.28L216.193 143.67C216.028 144.13 215.755 144.554 215.377 144.942C215.003 145.33 214.534 145.643 213.97 145.879C213.412 146.111 212.768 146.227 212.039 146.227ZM224.874 146V135.091H226.103V136.767H226.195C226.413 136.218 226.792 135.775 227.331 135.439C227.876 135.098 228.492 134.928 229.178 134.928C229.282 134.928 229.398 134.93 229.526 134.935C229.654 134.939 229.76 134.944 229.846 134.949V136.234C229.789 136.225 229.689 136.211 229.547 136.192C229.405 136.173 229.251 136.163 229.086 136.163C228.518 136.163 228.011 136.284 227.566 136.526C227.126 136.762 226.778 137.091 226.522 137.513C226.266 137.934 226.138 138.415 226.138 138.955V146H224.874ZM235.05 146.249C234.392 146.249 233.79 146.121 233.246 145.865C232.701 145.605 232.268 145.231 231.946 144.743C231.624 144.25 231.463 143.654 231.463 142.953C231.463 142.413 231.565 141.959 231.769 141.589C231.972 141.22 232.261 140.917 232.635 140.68C233.009 140.444 233.452 140.257 233.963 140.119C234.475 139.982 235.038 139.875 235.654 139.8C236.264 139.724 236.78 139.658 237.202 139.601C237.628 139.544 237.952 139.454 238.175 139.331C238.397 139.208 238.509 139.009 238.509 138.734V138.479C238.509 137.735 238.286 137.151 237.841 136.724C237.401 136.294 236.766 136.078 235.938 136.078C235.152 136.078 234.51 136.251 234.013 136.597C233.521 136.942 233.175 137.349 232.976 137.818L231.776 137.385C232.022 136.788 232.363 136.312 232.798 135.957C233.234 135.598 233.722 135.339 234.262 135.183C234.801 135.022 235.348 134.942 235.902 134.942C236.319 134.942 236.752 134.996 237.202 135.105C237.656 135.214 238.078 135.403 238.466 135.673C238.854 135.938 239.169 136.31 239.411 136.788C239.652 137.262 239.773 137.863 239.773 138.592V146H238.509V144.274H238.431C238.279 144.596 238.054 144.909 237.756 145.212C237.458 145.515 237.084 145.763 236.634 145.957C236.184 146.152 235.656 146.249 235.05 146.249ZM235.22 145.091C235.893 145.091 236.475 144.942 236.968 144.643C237.46 144.345 237.839 143.95 238.104 143.457C238.374 142.96 238.509 142.413 238.509 141.817V140.24C238.414 140.33 238.255 140.411 238.033 140.482C237.815 140.553 237.562 140.616 237.273 140.673C236.989 140.725 236.705 140.77 236.421 140.808C236.137 140.846 235.881 140.879 235.654 140.908C235.038 140.983 234.512 141.102 234.077 141.263C233.641 141.424 233.307 141.646 233.075 141.93C232.843 142.21 232.727 142.57 232.727 143.01C232.727 143.673 232.964 144.187 233.438 144.551C233.911 144.911 234.505 145.091 235.22 145.091ZM244.4 139.182V146H243.136V135.091H244.365V136.803H244.478C244.734 136.244 245.132 135.796 245.671 135.46C246.216 135.119 246.888 134.949 247.688 134.949C248.422 134.949 249.066 135.103 249.62 135.411C250.179 135.714 250.612 136.161 250.92 136.753C251.232 137.345 251.389 138.071 251.389 138.933V146H250.124V139.011C250.124 138.116 249.874 137.409 249.372 136.888C248.874 136.367 248.207 136.107 247.369 136.107C246.796 136.107 246.287 136.23 245.842 136.476C245.397 136.722 245.044 137.077 244.784 137.541C244.528 138 244.4 138.547 244.4 139.182ZM258.88 150.318C258.136 150.318 257.485 150.221 256.927 150.027C256.368 149.838 255.897 149.577 255.513 149.246C255.13 148.914 254.831 148.543 254.618 148.131L255.655 147.449C255.812 147.723 256.02 147.993 256.28 148.259C256.546 148.524 256.889 148.744 257.31 148.919C257.736 149.094 258.26 149.182 258.88 149.182C259.846 149.182 260.625 148.94 261.216 148.457C261.813 147.974 262.111 147.224 262.111 146.206V143.749H261.998C261.851 144.08 261.64 144.411 261.366 144.743C261.091 145.07 260.731 145.342 260.286 145.56C259.846 145.777 259.299 145.886 258.645 145.886C257.774 145.886 257 145.671 256.323 145.24C255.651 144.809 255.12 144.194 254.732 143.393C254.349 142.589 254.157 141.63 254.157 140.517C254.157 139.414 254.344 138.443 254.718 137.605C255.097 136.767 255.625 136.114 256.302 135.645C256.979 135.176 257.767 134.942 258.667 134.942C259.334 134.942 259.888 135.06 260.329 135.297C260.769 135.529 261.122 135.818 261.387 136.163C261.657 136.509 261.867 136.845 262.019 137.172H262.147V135.091H263.383V146.284C263.383 147.207 263.186 147.967 262.793 148.564C262.4 149.161 261.865 149.601 261.188 149.885C260.511 150.174 259.742 150.318 258.88 150.318ZM258.795 144.729C259.495 144.729 260.094 144.561 260.591 144.224C261.089 143.884 261.47 143.396 261.735 142.761C262 142.127 262.133 141.372 262.133 140.496C262.133 139.643 262.002 138.888 261.742 138.23C261.482 137.567 261.103 137.046 260.606 136.668C260.113 136.284 259.51 136.092 258.795 136.092C258.065 136.092 257.45 136.289 256.948 136.682C256.446 137.075 256.067 137.605 255.812 138.273C255.556 138.936 255.428 139.677 255.428 140.496C255.428 141.329 255.558 142.065 255.819 142.705C256.079 143.339 256.46 143.836 256.962 144.196C257.464 144.551 258.075 144.729 258.795 144.729ZM271.14 146.227C270.122 146.227 269.241 145.991 268.498 145.517C267.755 145.039 267.179 144.378 266.772 143.536C266.37 142.688 266.169 141.713 266.169 140.609C266.169 139.511 266.37 138.536 266.772 137.683C267.179 136.826 267.74 136.156 268.455 135.673C269.175 135.186 270.006 134.942 270.948 134.942C271.54 134.942 272.111 135.051 272.66 135.268C273.209 135.482 273.702 135.811 274.137 136.256C274.578 136.696 274.926 137.252 275.181 137.925C275.437 138.592 275.565 139.383 275.565 140.297V140.922H267.042V139.807H274.272C274.272 139.106 274.13 138.476 273.846 137.918C273.567 137.354 273.176 136.909 272.674 136.582C272.177 136.256 271.602 136.092 270.948 136.092C270.257 136.092 269.649 136.277 269.123 136.646C268.597 137.016 268.186 137.503 267.887 138.109C267.594 138.715 267.445 139.378 267.44 140.098V140.766C267.44 141.632 267.589 142.39 267.887 143.038C268.19 143.682 268.619 144.182 269.173 144.537C269.727 144.892 270.383 145.07 271.14 145.07C271.656 145.07 272.108 144.989 272.497 144.828C272.89 144.667 273.219 144.452 273.484 144.182C273.754 143.907 273.957 143.607 274.095 143.28L275.295 143.67C275.129 144.13 274.857 144.554 274.478 144.942C274.104 145.33 273.635 145.643 273.072 145.879C272.513 146.111 271.869 146.227 271.14 146.227Z" fill="white"/>
<defs>
<clipPath id="clip0_563_8158">
<rect width="93" height="89" fill="white" transform="translate(99 20)"/>
</clipPath>
</defs>
</svg>
