<svg width="200" height="29" viewBox="0 0 200 29" fill="none" xmlns="http://www.w3.org/2000/svg">
<g clip-path="url(#clip0_397_7466)">
<path d="M13.4842 25.1148L13.6893 25.1319V29H0V15.2471H3.82602H3.84692L3.86402 15.4532C4.08628 17.9664 5.14443 20.2429 6.92826 22.0348C8.71399 23.8267 10.9803 24.8915 13.4804 25.1129L13.4842 25.1148ZM6.81997 18.8919L6.84657 18.9415C7.64635 20.3975 8.83937 21.5978 10.287 22.4031L10.6422 22.5997V16.6955C10.6422 16.6592 10.6384 16.6249 10.6365 16.5886C10.6403 16.5619 10.6422 16.5352 10.6422 16.5085V15.1307C10.6422 14.7643 10.3458 14.4666 9.9811 14.4666H7.48107C7.11633 14.4666 6.81997 14.7643 6.81997 15.1307V16.5085C6.81997 16.5352 6.82187 16.5619 6.82567 16.5886C6.82567 16.623 6.81997 16.6592 6.81997 16.6955V18.8919ZM18.4785 22.5977L18.8262 22.4069C20.2775 21.6035 21.4744 20.4013 22.276 18.9415L22.3045 18.89V12.8217C22.3045 12.8083 22.3045 12.795 22.3026 12.7797C22.3026 12.7663 22.3045 12.753 22.3045 12.7377V11.3599C22.3045 10.9936 22.0082 10.6959 21.6434 10.6959H19.1434C18.7787 10.6959 18.4823 10.9936 18.4823 11.3599V12.7377C18.4823 12.7511 18.4823 12.7644 18.4842 12.7797C18.4842 12.7931 18.4823 12.8064 18.4823 12.8217V22.5977H18.4785ZM16.4743 23.3038V8.03191C16.4743 8.03191 16.4743 8.02046 16.4743 8.01665C16.4743 8.01092 16.4743 8.0052 16.4743 8.00138V6.62361C16.4743 6.25722 16.178 5.95953 15.8132 5.95953H13.3132C12.9485 5.95953 12.6521 6.25722 12.6521 6.62361V8.00138C12.6521 8.00138 12.6521 8.01283 12.6521 8.01665C12.6521 8.02237 12.6521 8.0281 12.6521 8.03191V23.3019L12.8326 23.3382C13.4025 23.4527 13.9857 23.508 14.5632 23.508C15.1407 23.508 15.7258 23.4527 16.2938 23.3382L16.4743 23.3019V23.3038ZM24.6412 4.2459C21.9132 1.50753 18.2885 0 14.434 0C7.10303 0 0.940358 5.51109 0.100685 12.8179L0.0721891 13.0717H3.89821C4.19457 10.8313 5.20332 8.66928 6.91686 6.94802C11.0696 2.77653 17.8022 2.77653 21.955 6.94802C26.1078 11.1195 26.1097 17.8824 21.955 22.0539C20.2415 23.7752 18.0891 24.7865 15.8569 25.0842V28.9275L16.1096 28.897C23.3836 28.0535 28.87 21.8631 28.87 14.499C28.87 10.6272 27.3692 6.98427 24.6431 4.2459H24.6412Z" fill="#04030A"/>
<path d="M40.6899 24.3915C39.6489 23.9144 38.8263 23.2656 38.2203 22.4432C37.6143 21.6207 37.2913 20.7028 37.2495 19.6895H40.8248C40.8856 20.3994 41.2237 20.9929 41.8392 21.4699C42.4547 21.947 43.2279 22.1856 44.1569 22.1856C45.0858 22.1856 45.878 21.9985 46.4137 21.6226C46.9495 21.2486 47.2173 20.7658 47.2173 20.178C47.2173 19.5483 46.9191 19.0827 46.3244 18.7774C45.7279 18.4721 44.7838 18.1381 43.492 17.7736C42.2401 17.4282 41.2199 17.0943 40.4315 16.7699C39.6432 16.4455 38.9612 15.9474 38.3855 15.2776C37.8099 14.6078 37.5212 13.7262 37.5212 12.6289C37.5212 11.7359 37.7833 10.9191 38.3096 10.1787C38.8358 9.4383 39.5862 8.85437 40.5664 8.42882C41.5467 8.00328 42.6732 7.78955 43.9441 7.78955C45.8419 7.78955 47.3731 8.27234 48.5338 9.23602C49.6945 10.1997 50.3157 11.5145 50.3974 13.1785H46.9438C46.883 12.4266 46.5809 11.8294 46.0357 11.3828C45.4905 10.9363 44.7534 10.713 43.8244 10.713C42.8955 10.713 42.2192 10.8848 41.7328 11.2302C41.2484 11.5756 41.0052 12.0316 41.0052 12.6003C41.0052 13.0468 41.1667 13.4209 41.4897 13.7262C41.8126 14.0315 42.2059 14.27 42.6713 14.4418C43.1348 14.6135 43.8225 14.833 44.7306 15.0963C45.9426 15.4207 46.9381 15.7509 47.715 16.0848C48.492 16.4207 49.1645 16.9111 49.7306 17.5618C50.2967 18.2106 50.5893 19.0732 50.6102 20.1494C50.6102 21.1036 50.348 21.9546 49.8218 22.7065C49.2956 23.4565 48.5547 24.0461 47.5954 24.4717C46.636 24.8972 45.5095 25.1109 44.2177 25.1109C42.9259 25.1109 41.7271 24.8724 40.688 24.3953L40.6899 24.3915Z" fill="#04030A"/>
<path d="M78.0801 8.61011C79.1192 9.15778 79.938 9.9688 80.5345 11.0451C81.1291 12.1213 81.4274 13.419 81.4274 14.9418V24.8342H78.0041V15.4608C78.0041 13.959 77.6298 12.8083 76.8833 12.0068C76.1348 11.2054 75.1146 10.8046 73.8228 10.8046C72.531 10.8046 71.5052 11.2054 70.7472 12.0068C69.9892 12.8083 69.6112 13.959 69.6112 15.4608V24.8342H66.186V15.4608C66.186 13.959 65.8117 12.8083 65.0651 12.0068C64.3167 11.2054 63.2965 10.8046 62.0047 10.8046C60.7129 10.8046 59.6871 11.2054 58.9291 12.0068C58.1711 12.8083 57.793 13.959 57.793 15.4608V24.8342H54.3394V8.06243H57.793V9.98025C58.3591 9.29136 59.0753 8.75323 59.9435 8.36776C60.8117 7.98229 61.7406 7.78955 62.7323 7.78955C64.0659 7.78955 65.257 8.07388 66.3076 8.64255C67.3581 9.21121 68.1655 10.0318 68.7316 11.108C69.2369 10.0947 70.0253 9.28754 71.0948 8.68835C72.1663 8.09106 73.3175 7.78955 74.5485 7.78955C75.8612 7.78955 77.0371 8.06243 78.0782 8.61202L78.0801 8.61011Z" fill="#04030A"/>
<path d="M85.715 11.8981C86.4122 10.6004 87.3621 9.58905 88.5627 8.86963C89.7652 8.15021 91.0931 7.78955 92.5483 7.78955C93.861 7.78955 95.0065 8.04908 95.9868 8.56622C96.967 9.08336 97.7497 9.72835 98.3348 10.4993V8.06434H101.819V24.8342H98.3348V22.3382C97.7497 23.1301 96.9518 23.7885 95.9412 24.3171C94.9305 24.8457 93.7793 25.109 92.4875 25.109C91.0532 25.109 89.7405 24.7388 88.5475 23.9984C87.3545 23.258 86.4122 22.2218 85.715 20.8936C85.0178 19.5655 84.6702 18.058 84.6702 16.373C84.6702 14.688 85.0197 13.1976 85.715 11.8981ZM97.6224 13.419C97.1475 12.566 96.5263 11.9171 95.7588 11.4706C94.9913 11.0241 94.163 10.8008 93.274 10.8008C92.3849 10.8008 91.5566 11.0203 90.7891 11.4553C90.0217 11.8923 89.4005 12.5316 88.9255 13.3732C88.4506 14.2147 88.2131 15.2146 88.2131 16.371C88.2131 17.5275 88.4506 18.5427 88.9255 19.4147C89.4005 20.2868 90.0274 20.9528 90.8043 21.4089C91.5813 21.865 92.4039 22.094 93.274 22.094C94.144 22.094 94.9894 21.8707 95.7588 21.4241C96.5263 20.9776 97.1475 20.3231 97.6224 19.4605C98.0973 18.598 98.3348 17.5885 98.3348 16.4321C98.3348 15.2757 98.0973 14.2719 97.6224 13.419Z" fill="#04030A"/>
<path d="M111.832 8.5032C112.67 8.02613 113.666 7.7876 114.817 7.7876V11.379H113.937C112.585 11.379 111.559 11.7244 110.862 12.4132C110.164 13.104 109.817 14.3005 109.817 16.0046V24.8323H106.363V8.06239H109.817V10.4973C110.322 9.64435 110.993 8.98027 111.832 8.5032Z" fill="#04030A"/>
<path d="M122.028 10.8924V20.1761C122.028 20.8058 122.174 21.2562 122.467 21.531C122.759 21.8058 123.259 21.9413 123.966 21.9413H126.088V24.8323H123.362C121.806 24.8323 120.615 24.4678 119.786 23.7369C118.958 23.0061 118.544 21.8191 118.544 20.1761V10.8924H116.574V8.0624H118.544V3.89282H122.028V8.0624H126.088V10.8924H122.028Z" fill="#04030A"/>
<path d="M135.446 11.8828C136.143 10.5737 137.106 9.56424 138.339 8.85437C139.57 8.14449 140.985 7.78955 142.581 7.78955C144.6 7.78955 146.272 8.27234 147.596 9.23602C148.918 10.1997 149.813 11.5756 150.277 13.3598H146.55C146.247 12.5278 145.761 11.879 145.096 11.4114C144.429 10.9458 143.592 10.7111 142.581 10.7111C141.166 10.7111 140.039 11.213 139.203 12.2167C138.366 13.2205 137.946 14.6269 137.946 16.4321C137.946 18.2373 138.366 19.6495 139.203 20.6627C140.041 21.6779 141.168 22.1856 142.581 22.1856C144.581 22.1856 145.904 21.302 146.55 19.5369H150.277C149.792 21.241 148.882 22.5958 147.551 23.5996C146.217 24.6033 144.561 25.1052 142.581 25.1052C140.985 25.1052 139.57 24.7445 138.339 24.0251C137.106 23.3057 136.141 22.2905 135.446 20.9814C134.75 19.6724 134.401 18.1572 134.401 16.4321C134.401 14.707 134.75 13.19 135.446 11.8828Z" fill="#04030A"/>
<path d="M156.702 24.0271C155.429 23.3077 154.43 22.2925 153.702 20.9834C152.974 19.6743 152.612 18.1591 152.612 16.4341C152.612 14.709 152.984 13.2186 153.732 11.9C154.479 10.5814 155.499 9.5662 156.793 8.85632C158.085 8.14644 159.53 7.7915 161.126 7.7915C162.722 7.7915 164.166 8.14644 165.459 8.85632C166.753 9.5662 167.773 10.5814 168.52 11.9C169.266 13.2186 169.641 14.73 169.641 16.4341C169.641 18.1382 169.257 19.6514 168.489 20.97C167.722 22.2886 166.677 23.3096 165.353 24.029C164.029 24.7484 162.57 25.1091 160.974 25.1091C159.378 25.1091 157.974 24.7484 156.702 24.029V24.0271ZM163.474 21.4547C164.251 21.0292 164.884 20.3899 165.368 19.5369C165.853 18.6839 166.096 17.6496 166.096 16.4322C166.096 15.2147 165.864 14.1861 165.399 13.3427C164.933 12.5011 164.318 11.8676 163.55 11.4401C162.783 11.0127 161.954 10.8008 161.065 10.8008C160.176 10.8008 159.354 11.0146 158.596 11.4401C157.838 11.8657 157.237 12.4992 156.793 13.3427C156.348 14.1842 156.126 15.2147 156.126 16.4322C156.126 18.2393 156.586 19.6323 157.505 20.617C158.425 21.6017 159.582 22.094 160.974 22.094C161.863 22.094 162.695 21.8803 163.474 21.4547Z" fill="#04030A"/>
<path d="M178.531 8.5032C179.369 8.02613 180.365 7.7876 181.516 7.7876V11.379H180.636C179.284 11.379 178.258 11.7244 177.561 12.4132C176.863 13.104 176.516 14.3005 176.516 16.0046V24.8323H173.062V8.06239H176.516V10.4973C177.021 9.64435 177.692 8.98027 178.531 8.5032Z" fill="#04030A"/>
<path d="M199.878 17.7412H187.122C187.222 19.0808 187.716 20.1552 188.605 20.9681C189.494 21.7791 190.585 22.1856 191.877 22.1856C193.735 22.1856 195.047 21.4051 195.817 19.8422H199.544C199.039 21.3841 198.125 22.6474 196.803 23.6321C195.478 24.6167 193.839 25.1072 191.879 25.1072C190.283 25.1072 188.854 24.7465 187.591 24.0271C186.328 23.3077 185.338 22.2925 184.622 20.9834C183.905 19.6743 183.546 18.1591 183.546 16.4341C183.546 14.709 183.896 13.1919 184.591 11.8847C185.288 10.5757 186.267 9.5662 187.53 8.85632C188.792 8.14644 190.241 7.7915 191.879 7.7915C193.516 7.7915 194.859 8.1369 196.09 8.82579C197.321 9.51658 198.282 10.4841 198.968 11.7321C199.654 12.9801 199.998 14.4151 199.998 16.0391C199.998 16.6688 199.958 17.2374 199.876 17.7431L199.878 17.7412ZM196.394 14.9418C196.373 13.6633 195.919 12.6385 195.03 11.8676C194.141 11.0966 193.039 10.7112 191.727 10.7112C190.534 10.7112 189.513 11.0909 188.666 11.8523C187.817 12.6137 187.314 13.6442 187.15 14.9418H196.392H196.394Z" fill="#04030A"/>
</g>
<defs>
<clipPath id="clip0_397_7466">
<rect width="200" height="29" fill="white"/>
</clipPath>
</defs>
</svg>
