<?xml version="1.0" encoding="UTF-8"?>
<svg id="Layer_1" data-name="Layer 1" xmlns="http://www.w3.org/2000/svg" viewBox="0 0 684.2 118.2">
  <defs>
    <style>
      .cls-1 {
        fill: #f8f4f1;
      }
    </style>
  </defs>
  <g>
    <path class="cls-1" d="M133.9,7.2c1.2-.7,2.6-1.1,4.2-1.1s3.1.4,4.5,1.2c1.3.8,2.4,1.9,3.1,3.3.8,1.4,1.1,3.1,1.1,5s-.4,3.5-1.1,5c-.8,1.5-1.8,2.6-3.1,3.4s-2.8,1.2-4.5,1.2-3-.3-4.2-1.1-2.1-1.6-2.7-2.6v12.1h-3.1V6.5h3.1v3.4c.6-1.1,1.5-1.9,2.7-2.6h0v-.1ZM142.9,12c-.6-1-1.3-1.8-2.3-2.4-1-.5-2-.8-3.1-.8s-2.2.3-3.1.8c-1,.6-1.7,1.3-2.3,2.4-.6,1-.9,2.2-.9,3.6s.3,2.6.9,3.7,1.3,1.8,2.3,2.4,2,.8,3.1.8,2.2-.3,3.1-.8c1-.6,1.7-1.3,2.3-2.4.6-1,.8-2.3.8-3.7s-.3-2.6-.8-3.6Z"/>
    <path class="cls-1" d="M154.2,24c-1.4-.8-2.5-1.9-3.3-3.4s-1.2-3.1-1.2-5,.4-3.6,1.2-5c.8-1.5,1.9-2.6,3.4-3.3s3-1.2,4.7-1.2,3.3.4,4.7,1.2c1.4.8,2.5,1.9,3.4,3.3.8,1.4,1.2,3.1,1.2,5s-.4,3.6-1.3,5-2,2.6-3.4,3.4-3,1.2-4.8,1.2-3.3-.4-4.7-1.2h.1ZM162,21.8c1-.5,1.7-1.3,2.3-2.3s.9-2.3.9-3.8-.3-2.7-.9-3.8c-.6-1-1.3-1.8-2.3-2.3-.9-.5-2-.8-3.1-.8s-2.1.2-3.1.8-1.7,1.3-2.2,2.3-.8,2.3-.8,3.8.3,2.8.8,3.8,1.3,1.8,2.2,2.3,1.9.8,3,.8,2.1-.3,3.1-.8h.1Z"/>
    <path class="cls-1" d="M197,6.5l-5.8,18.4h-3.2l-4.4-14.6-4.4,14.6h-3.2l-5.8-18.4h3.1l4.2,15.5,4.6-15.5h3.1l4.5,15.5,4.2-15.5h3.1,0Z"/>
    <path class="cls-1" d="M216.7,16.8h-14.7c.1,1.8.7,3.2,1.9,4.3,1.1,1,2.5,1.5,4.1,1.5s2.4-.3,3.3-.9c.9-.6,1.5-1.4,1.9-2.5h3.3c-.5,1.8-1.5,3.2-3,4.3s-3.3,1.7-5.5,1.7-3.3-.4-4.7-1.2-2.5-1.9-3.3-3.4-1.2-3.1-1.2-5,.4-3.6,1.1-5c.8-1.4,1.8-2.5,3.2-3.3s3-1.2,4.8-1.2,3.3.4,4.6,1.1,2.4,1.8,3.1,3.1c.7,1.3,1.1,2.8,1.1,4.5s0,1.2-.1,1.9h0l.1.1ZM212.9,11.3c-.5-.8-1.2-1.5-2.1-1.9-.9-.4-1.9-.7-2.9-.7-1.6,0-2.9.5-4,1.5s-1.7,2.4-1.9,4.1h11.6c0-1.2-.3-2.2-.8-3h.1Z"/>
    <path class="cls-1" d="M226.2,7c1-.6,2.2-.9,3.7-.9v3.2h-.8c-3.4,0-5.2,1.9-5.2,5.6v10h-3.1V6.5h3.1v3c.5-1.1,1.3-1.9,2.3-2.5h0Z"/>
    <path class="cls-1" d="M250.1,16.8h-14.7c.1,1.8.7,3.2,1.9,4.3,1.1,1,2.5,1.5,4.1,1.5s2.4-.3,3.3-.9c.9-.6,1.5-1.4,1.9-2.5h3.3c-.5,1.8-1.5,3.2-3,4.3s-3.3,1.7-5.5,1.7-3.3-.4-4.7-1.2-2.5-1.9-3.3-3.4-1.2-3.1-1.2-5,.4-3.6,1.1-5c.8-1.4,1.8-2.5,3.2-3.3s3-1.2,4.8-1.2,3.3.4,4.6,1.1,2.4,1.8,3.1,3.1c.7,1.3,1.1,2.8,1.1,4.5s0,1.2-.1,1.9h0l.1.1ZM246.3,11.3c-.5-.8-1.2-1.5-2.1-1.9-.9-.4-1.9-.7-2.9-.7-1.6,0-2.9.5-4,1.5s-1.7,2.4-1.9,4.1h11.6c0-1.2-.3-2.2-.8-3h.1Z"/>
    <path class="cls-1" d="M254.3,10.7c.8-1.4,1.8-2.5,3.1-3.3,1.3-.8,2.8-1.2,4.5-1.2s2.8.3,4,1,2.2,1.5,2.8,2.6V0h3.1v24.9h-3.1v-3.5c-.6,1.1-1.5,2-2.7,2.7s-2.6,1.1-4.2,1.1-3.1-.4-4.5-1.2c-1.3-.8-2.4-1.9-3.1-3.4s-1.1-3.1-1.1-5,.4-3.5,1.1-5h.1v.1ZM267.9,12c-.6-1-1.3-1.8-2.3-2.4-1-.6-2-.8-3.1-.8s-2.2.3-3.1.8-1.7,1.3-2.3,2.4c-.6,1-.8,2.2-.8,3.6s.3,2.6.8,3.7c.6,1,1.3,1.8,2.3,2.4s2,.8,3.1.8,2.2-.3,3.1-.8,1.7-1.3,2.3-2.4c.6-1,.8-2.3.8-3.7s-.3-2.6-.8-3.6Z"/>
    <path class="cls-1" d="M291.8,7.2c1.2-.7,2.6-1,4.1-1s3.1.4,4.5,1.2c1.3.8,2.4,1.9,3.1,3.3.8,1.4,1.1,3.1,1.1,5s-.4,3.5-1.1,5c-.8,1.5-1.8,2.6-3.1,3.4-1.3.8-2.8,1.2-4.5,1.2s-3-.3-4.2-1-2.1-1.6-2.7-2.7v3.4h-3.1V0h3.1v9.9c.6-1.1,1.6-2,2.8-2.7h0ZM300.8,12c-.6-1-1.3-1.8-2.3-2.4-1-.5-2-.8-3.1-.8s-2.2.3-3.1.8c-1,.6-1.7,1.3-2.3,2.4-.6,1-.9,2.2-.9,3.6s.3,2.6.9,3.7,1.3,1.8,2.3,2.4,2,.8,3.1.8,2.2-.3,3.1-.8c1-.6,1.7-1.3,2.3-2.4.6-1,.8-2.3.8-3.7s-.3-2.6-.8-3.6Z"/>
    <path class="cls-1" d="M324.7,6.5l-11.1,27.1h-3.2l3.6-8.9-7.4-18.2h3.4l5.8,14.9,5.7-14.9s3.2,0,3.2,0Z"/>
  </g>
  <g>
    <path class="cls-1" d="M332.204,64.965c0-16.313,9.609-24.134,23.799-24.134,14.078,0,23.687,7.821,23.687,24.246v.559h-10.503v-.67c0-10.168-5.363-14.302-13.185-14.302-7.933,0-13.185,4.134-13.185,14.302v34.115h-10.615v-34.115Z"/>
    <path class="cls-1" d="M575.801,64.965c0-16.313,9.609-24.134,23.799-24.134,14.078,0,23.687,7.821,23.687,24.246v.559h-10.503v-.67c0-10.168-5.363-14.302-13.185-14.302-7.933,0-13.185,4.134-13.185,14.302v34.115h-10.615v-34.115Z"/>
    <path class="cls-1" d="M23.387,69.958h9.287c1.092,0,1.977.885,1.977,1.977v23.745c-5.915-3.14-10.626-8.259-13.24-14.47v-9.275c0-1.092.885-1.977,1.977-1.977ZM41.626,42.579v55.719c2.127.497,4.343.76,6.62.76s4.492-.263,6.62-.76v-55.719c0-1.092-.885-1.977-1.977-1.977h-9.287c-1.092,0-1.977.885-1.977,1.977ZM61.842,58.809v36.871c5.915-3.139,10.626-8.259,13.24-14.47v-22.401c0-1.092-.885-1.977-1.977-1.977h-9.287c-1.092,0-1.977.885-1.977,1.977ZM44.606,105.007c-8.037-.819-15.488-4.345-21.278-10.135-5.79-5.79-9.316-13.241-10.135-21.278H0v40.794c0,2.105,1.707,3.812,3.812,3.812h40.794v-13.193ZM86.907,41.087c-.232-.31-.467-.616-.705-.92-8.833-11.24-22.551-18.46-37.956-18.46h0c-25.421,0-46.249,19.661-48.11,44.606h13.057c.613-6.016,2.743-11.704,6.204-16.612,1.163-1.649,2.476-3.21,3.932-4.666,2.496-2.496,5.3-4.571,8.327-6.191.504-.27,1.015-.527,1.532-.771.775-.367,1.562-.704,2.362-1.013,3.997-1.541,8.285-2.347,12.697-2.347,7.942,0,15.483,2.61,21.644,7.423,1.141.891,2.234,1.858,3.274,2.898,3.12,3.12,5.583,6.722,7.319,10.638,1.968,4.438,3.002,9.28,3.002,14.28,0,9.119-3.44,17.708-9.706,24.288-.202.212-.407.422-.615.63-1.04,1.04-2.133,2.007-3.274,2.898-5.211,4.072-11.41,6.566-18.004,7.238v13.056c24.945-1.861,44.606-22.689,44.606-48.11h0c0-10.825-3.565-20.817-9.585-28.866Z"/>
    <path class="cls-1" d="M124.123,81.508h10.728c.224,4.582,4.47,7.823,12.181,7.823,8.046,0,12.181-3.464,12.181-7.823,0-5.252-5.811-5.923-12.74-6.817-9.61-1.229-21.232-3.017-21.232-15.645,0-10.84,8.493-18.215,21.679-18.215s21.344,7.487,21.568,16.986h-10.504c-.335-4.246-4.247-7.376-10.951-7.376-7.04,0-11.064,3.353-11.064,7.711,0,5.253,5.811,5.811,12.628,6.705,9.61,1.229,21.344,3.017,21.344,15.645,0,11.175-9.052,18.439-22.909,18.439s-22.574-7.376-22.909-17.433Z"/>
    <path class="cls-1" d="M175.528,65.527c0-16.874,9.835-24.697,22.798-24.697,8.493,0,15.645,3.799,19.444,10.951,3.8-7.152,10.84-10.951,19.445-10.951,12.963,0,22.797,7.823,22.797,24.697v33.553h-10.616v-33.553c0-10.281-5.475-14.863-13.186-14.863-7.487,0-13.075,4.806-13.075,14.863v33.553h-10.617v-33.553c0-10.057-5.699-14.863-13.186-14.863-7.711,0-13.187,4.582-13.187,14.863v33.553h-10.617v-33.553Z"/>
    <path class="cls-1" d="M324.716,69.886c0-5.809-1.479-11.08-4.134-15.49-4.921-8.477-14.016-13.565-25.368-13.565-.038,0-.075.002-.113.002-.037,0-.074-.002-.111-.002-17.433,0-29.725,12.293-29.725,29.055,0,2.247.228,4.41.652,6.478,2.649,14.457,14.77,22.578,27.509,22.578.223,0,.441-.015.663-.02.3.007.598.02.902.02,7.916,0,14.766-2.541,19.892-6.877v7.016s9.721,0,9.721,0v-26.545c.07-.871.112-1.752.112-2.65ZM276.105,69.886c0-11.157,7.574-19.194,18.941-19.22,11.368.026,18.942,8.063,18.942,19.22s-7.574,19.193-18.942,19.22c-11.367-.026-18.941-8.063-18.941-19.22Z"/>
    <g>
      <path class="cls-1" d="M449.521,69.886c0-16.763,12.293-29.055,29.726-29.055,14.639,0,25.591,8.716,28.496,21.456h-10.728c-2.682-7.04-9.163-11.622-17.768-11.622-11.398,0-18.998,8.046-18.998,19.221s7.599,19.221,18.998,19.221c8.605,0,15.086-4.582,17.768-11.622h10.728c-2.905,12.74-13.857,21.456-28.496,21.456-17.433,0-29.726-12.293-29.726-29.055Z"/>
      <path class="cls-1" d="M510.985,69.886c0-16.763,12.293-29.055,29.725-29.055s29.726,12.293,29.726,29.055-12.293,29.055-29.726,29.055-29.725-12.293-29.725-29.055ZM559.708,69.886c0-11.175-7.599-19.221-18.998-19.221s-18.997,8.046-18.997,19.221,7.599,19.221,18.997,19.221,18.998-8.046,18.998-19.221Z"/>
      <path class="cls-1" d="M624.972,69.886c0-16.763,12.293-29.055,29.726-29.055s29.502,12.293,29.502,29.055v3.911h-48.053c1.565,9.834,8.941,15.31,18.551,15.31,7.152,0,12.181-2.235,15.422-7.04h11.734c-4.247,10.281-14.304,16.875-27.156,16.875-17.433,0-29.726-12.293-29.726-29.055ZM673.025,64.298c-2.124-8.828-9.388-13.634-18.327-13.634-9.163,0-16.092,4.917-18.215,13.634h36.543Z"/>
    </g>
    <path class="cls-1" d="M383.609,76.611V22.679h10.63v18.209h30.434v9.735h-30.434v25.988c0,8.727,4.587,12.532,11.525,12.532s11.636-3.693,11.636-12.532v-1.231h10.518v1.231c0,14.993-8.951,22.378-22.154,22.378s-22.155-7.385-22.155-22.378Z"/>
  </g>
</svg>